<?xml version="1.0" standalone="no"?>
<!DOCTYPE svg PUBLIC "-//W3C//DTD SVG 20010904//EN"
 "http://www.w3.org/TR/2001/REC-SVG-20010904/DTD/svg10.dtd">
<svg version="1.0" xmlns="http://www.w3.org/2000/svg"
 width="720.000000pt" height="720.000000pt" viewBox="0 0 720.000000 720.000000"
 preserveAspectRatio="xMidYMid meet">
<metadata>
Created by potrace 1.11, written by Peter Selinger 2001-2013
</metadata>
<g transform="translate(0.000000,720.000000) scale(0.100000,-0.100000)"
fill="#000000" stroke="none">
<path d="M0 3600 l0 -3600 3600 0 3600 0 0 3600 0 3600 -3600 0 -3600 0 0
-3600z m1100 2417 c179 -87 286 -220 325 -403 18 -87 18 -141 0 -229 -43 -203
-200 -373 -398 -430 -68 -20 -220 -22 -293 -4 -143 34 -291 154 -357 289 -39
78 -67 185 -67 257 0 79 28 192 67 266 47 89 148 194 223 232 109 56 153 65
295 62 127 -3 132 -4 205 -40z m1515 -1052 c172 -48 322 -226 360 -428 48
-256 -29 -515 -205 -687 -119 -117 -241 -170 -391 -170 -289 0 -499 249 -500
589 0 159 24 259 94 383 146 257 397 380 642 313z m1858 -82 c3 -10 40 -106
82 -213 l77 -195 -30 -25 c-17 -14 -45 -35 -64 -48 -554 -383 -747 -540 -1208
-983 -323 -310 -450 -419 -625 -536 -260 -174 -504 -254 -775 -253 -275 0
-503 75 -760 251 -135 92 -232 174 -438 370 -282 269 -385 362 -500 452 -56
44 -102 87 -102 94 0 8 10 24 22 37 13 12 81 84 152 159 71 75 136 137 144
137 24 0 197 -126 289 -212 48 -45 171 -165 273 -268 102 -102 205 -204 230
-226 142 -125 329 -231 460 -260 96 -22 269 -22 375 -1 297 59 563 231 976
631 403 391 547 517 854 746 246 183 514 360 546 360 9 0 19 -8 22 -17z m1557
-199 c166 -42 317 -115 505 -243 91 -62 216 -154 236 -173 8 -7 76 -62 152
-122 75 -60 137 -114 137 -119 0 -23 -250 -339 -265 -335 -13 3 -257 203 -315
257 -64 61 -229 175 -313 216 -133 66 -223 86 -397 92 -251 8 -472 -44 -745
-177 -334 -162 -578 -359 -1067 -862 -161 -166 -351 -362 -423 -435 l-130
-133 -293 2 -292 3 71 90 c338 424 731 848 1004 1081 584 498 1142 779 1755
884 93 16 263 4 380 -26z m-394 -995 c91 -16 229 -87 296 -153 71 -69 125
-175 140 -272 40 -258 -168 -541 -467 -637 -109 -35 -265 -45 -380 -24 -156
28 -323 136 -392 254 -57 98 -78 239 -52 353 49 215 282 426 524 476 76 15
253 17 331 3z m-4007 -1399 c27 -12 57 -30 66 -40 35 -38 28 -142 -10 -157 -9
-3 -51 11 -94 31 -131 61 -243 46 -271 -39 -7 -20 -9 -48 -5 -62 14 -56 45
-82 181 -150 195 -97 252 -154 273 -270 11 -57 -2 -151 -29 -203 -32 -62 -113
-127 -188 -150 -118 -37 -268 -26 -374 26 -60 30 -78 57 -78 114 0 79 35 101
101 64 142 -81 282 -84 348 -8 26 29 31 43 31 84 0 73 -34 106 -187 182 -206
103 -267 175 -267 318 -1 162 99 269 268 288 80 10 173 -2 235 -28z m1638 -10
c6 -14 30 -95 53 -180 135 -513 157 -588 164 -570 5 13 161 624 180 705 15 65
30 75 106 75 70 0 93 -10 104 -48 3 -9 26 -93 51 -187 113 -412 154 -557 157
-561 2 -2 41 139 87 314 99 378 120 453 133 470 14 16 140 16 156 0 7 -7 12
-20 12 -31 0 -10 -50 -192 -111 -405 -157 -549 -167 -584 -186 -604 -23 -26
-161 -26 -192 0 -14 12 -33 63 -62 167 -22 83 -56 204 -74 270 -18 66 -41 149
-51 185 -9 36 -20 68 -23 72 -4 4 -45 -144 -91 -329 -50 -198 -93 -346 -103
-360 -17 -21 -26 -23 -97 -23 -59 0 -83 4 -99 18 -15 13 -55 137 -162 511
-156 546 -155 537 -82 543 72 6 116 -5 130 -32z m1739 25 c26 -6 21 7 181
-435 68 -190 142 -393 164 -452 41 -114 47 -146 27 -166 -17 -17 -143 -16
-161 2 -8 8 -33 69 -57 135 l-42 121 -195 0 c-146 0 -195 -3 -197 -12 -22 -76
-82 -232 -93 -244 -10 -9 -36 -14 -78 -14 -54 0 -66 3 -79 21 -17 25 -16 29
72 269 33 91 85 235 116 320 110 308 157 434 167 446 15 19 104 23 175 9z
m-4352 -23 c85 -31 135 -63 188 -120 86 -91 117 -178 125 -342 11 -252 -69
-426 -237 -514 -95 -50 -186 -66 -383 -66 -151 0 -162 1 -184 22 l-23 21 0
494 c0 487 0 493 21 514 20 20 28 21 227 17 180 -4 215 -8 266 -26z m1900 12
c9 -8 19 -27 22 -40 16 -65 0 -97 -239 -471 -129 -203 -234 -369 -232 -371 2
-2 107 -4 235 -5 263 -2 260 -1 260 -86 0 -84 12 -81 -357 -81 -310 0 -324 1
-343 20 -15 15 -20 33 -20 78 1 50 6 66 43 124 64 103 272 429 354 555 40 62
73 117 73 123 0 6 -73 10 -214 10 -245 0 -246 0 -246 77 0 86 -10 83 341 83
266 0 310 -2 323 -16z m3000 -6 c8 -13 74 -197 147 -411 72 -213 134 -385 136
-383 3 3 64 182 135 398 72 216 135 399 141 406 7 9 33 12 86 10 l76 -3 3 -33
c2 -21 -15 -85 -47 -175 -81 -229 -205 -583 -247 -705 -51 -148 -55 -152 -152
-152 -47 0 -85 5 -95 12 -9 7 -25 38 -36 68 -10 30 -76 217 -146 415 -180 510
-187 532 -175 555 9 17 21 20 85 20 66 0 76 -2 89 -22z m1480 6 c18 -17 22
-99 6 -124 -7 -12 -46 -16 -207 -20 l-198 -5 -3 -132 -3 -133 164 0 c117 0
168 -4 181 -13 23 -17 31 -85 14 -117 -13 -25 -15 -25 -183 -30 l-170 -5 0
-155 0 -155 195 -3 c185 -2 196 -3 213 -23 21 -26 22 -87 1 -117 -15 -22 -18
-22 -280 -22 -154 0 -273 4 -284 10 -10 5 -23 23 -28 40 -15 42 -16 927 -2
966 20 53 23 54 306 54 225 0 265 -2 278 -16z"/>
<path d="M825 5974 c-125 -27 -205 -67 -282 -142 -102 -101 -154 -255 -134
-397 34 -238 267 -430 499 -410 248 21 442 229 442 475 0 162 -102 340 -238
412 -80 44 -225 74 -287 62z"/>
<path d="M4903 2023 c-5 -21 -35 -109 -66 -195 l-55 -158 139 0 c76 0 139 2
139 5 0 16 -134 385 -139 385 -4 0 -12 -17 -18 -37z"/>
<path d="M325 2139 c-3 -8 -4 -176 -3 -374 l3 -360 105 1 c129 0 193 19 249
74 72 70 109 198 98 340 -12 148 -68 245 -173 296 -45 22 -72 27 -164 32 -88
4 -111 2 -115 -9z"/>
</g>
</svg>
